<?xml version="1.0" encoding="UTF-8"?><svg xmlns="http://www.w3.org/2000/svg" xmlns:xlink="http://www.w3.org/1999/xlink" fill-opacity="1" color-rendering="auto" color-interpolation="auto" text-rendering="auto" stroke="black" stroke-linecap="square" width="254" stroke-miterlimit="10" shape-rendering="auto" stroke-opacity="1" fill="black" stroke-dasharray="none" font-weight="normal" stroke-width="1" height="147" font-family="'Dialog'" font-style="normal" stroke-linejoin="miter" font-size="12px" stroke-dashoffset="0" image-rendering="auto">
  <!--Generated by ySVG 2.5-->
  <defs id="genericDefs"/>
  <g>
    <defs id="defs1">
      <linearGradient x1="601.0525" gradientUnits="userSpaceOnUse" x2="664.6091" y1="391.0132" y2="431.2166" id="linearGradient1" spreadMethod="reflect">
        <stop stop-opacity="1" stop-color="rgb(153,204,255)" offset="0%"/>
        <stop stop-opacity="1" stop-color="rgb(204,255,255)" offset="100%"/>
      </linearGradient>
      <linearGradient x1="601.0525" gradientUnits="userSpaceOnUse" x2="664.6091" y1="467.5541" y2="507.7575" id="linearGradient2" spreadMethod="reflect">
        <stop stop-opacity="1" stop-color="rgb(153,204,255)" offset="0%"/>
        <stop stop-opacity="1" stop-color="rgb(204,255,255)" offset="100%"/>
      </linearGradient>
      <clipPath clipPathUnits="userSpaceOnUse" id="clipPath1">
        <path d="M0 0 L254 0 L254 147 L0 147 L0 0 Z"/>
      </clipPath>
      <clipPath clipPathUnits="userSpaceOnUse" id="clipPath2">
        <path d="M426 376 L680 376 L680 523 L426 523 L426 376 Z"/>
      </clipPath>
    </defs>
    <g fill="white" text-rendering="geometricPrecision" shape-rendering="geometricPrecision" transform="translate(-426,-376)" stroke="white">
      <rect x="426" width="254" height="147" y="376" clip-path="url(#clipPath2)" stroke="none"/>
    </g>
    <g text-rendering="geometricPrecision" stroke-miterlimit="1.45" shape-rendering="geometricPrecision" font-family="sans-serif" transform="matrix(1,0,0,1,-426,-376)" stroke-linecap="butt">
      <text x="454.0132" xml:space="preserve" y="427.0892" clip-path="url(#clipPath2)" stroke="none">X</text>
      <text x="568.1237" xml:space="preserve" y="427.0892" clip-path="url(#clipPath2)" stroke="none">Y</text>
    </g>
    <g fill="url(#linearGradient1)" text-rendering="geometricPrecision" shape-rendering="geometricPrecision" transform="matrix(1,0,0,1,-426,-376)" stroke="url(#linearGradient1)">
      <circle r="20.1017" clip-path="url(#clipPath2)" cx="632.8308" cy="411.1149" stroke="none"/>
    </g>
    <g text-rendering="geometricPrecision" stroke-miterlimit="1.45" shape-rendering="geometricPrecision" transform="matrix(1,0,0,1,-426,-376)" stroke-linecap="butt">
      <circle fill="none" r="20.1017" clip-path="url(#clipPath2)" cx="632.8308" cy="411.1149"/>
      <text x="629.075" xml:space="preserve" y="415.65" clip-path="url(#clipPath2)" font-family="sans-serif" stroke="none"><a id="characterize_link_x" href="">X</a></text>
    </g>
    <g fill="url(#linearGradient2)" text-rendering="geometricPrecision" shape-rendering="geometricPrecision" transform="matrix(1,0,0,1,-426,-376)" stroke="url(#linearGradient2)">
      <circle r="20.1017" clip-path="url(#clipPath2)" cx="632.8308" cy="487.6558" stroke="none"/>
    </g>
    <g text-rendering="geometricPrecision" stroke-miterlimit="1.45" shape-rendering="geometricPrecision" transform="matrix(1,0,0,1,-426,-376)" stroke-linecap="butt">
      <circle fill="none" r="20.1017" clip-path="url(#clipPath2)" cx="632.8308" cy="487.6558"/>
      <text x="629.0925" xml:space="preserve" y="492.1909" clip-path="url(#clipPath2)" font-family="sans-serif" stroke="none"><a id="characterize_link_y" href="">Y</a></text>
    </g>
    <g text-rendering="geometricPrecision" stroke-miterlimit="1.45" stroke-dasharray="6,2" shape-rendering="geometricPrecision" transform="matrix(1,0,0,1,-426,-376)" stroke-linecap="butt">
      <path fill="none" d="M472.7691 422.5541 L548.862 422.5541" clip-path="url(#clipPath2)"/>
      <path d="M556.862 422.5541 L544.862 417.5541 L547.862 422.5541 L544.862 427.5541 Z" clip-path="url(#clipPath2)" stroke="none"/>
      <text x="443.4229" y="417.8659" clip-path="url(#clipPath2)" font-family="sans-serif" stroke-dasharray="none" stroke="none" xml:space="preserve">&lt;&lt;CHARACTERIZES&gt;&gt;</text>
      <path fill="none" stroke-dasharray="none" d="M632.8308 431.1844 L632.8308 459.5544" clip-path="url(#clipPath2)"/>
      <path stroke-dasharray="none" d="M632.8308 467.5544 L637.8308 455.5544 L632.8308 458.5544 L627.8308 455.5544 Z" clip-path="url(#clipPath2)" stroke="none"/>
    </g>
  </g>
</svg>
