<?xml version="1.0" encoding="UTF-8"?><svg xmlns="http://www.w3.org/2000/svg" xmlns:xlink="http://www.w3.org/1999/xlink" fill-opacity="1" color-rendering="auto" color-interpolation="auto" text-rendering="auto" stroke="black" stroke-linecap="square" width="323" stroke-miterlimit="10" shape-rendering="auto" stroke-opacity="1" fill="black" stroke-dasharray="none" font-weight="normal" stroke-width="1" height="154" font-family="'Dialog'" font-style="normal" stroke-linejoin="miter" font-size="12px" stroke-dashoffset="0" image-rendering="auto">
  <!--Generated by ySVG 2.5-->
  <defs id="genericDefs"/>
  <g>
    <defs id="defs1">
      <linearGradient x1="600.1679" gradientUnits="userSpaceOnUse" x2="663.7245" y1="391.8108" y2="432.0142" id="linearGradient1" spreadMethod="reflect">
        <stop stop-opacity="1" stop-color="rgb(153,204,255)" offset="0%"/>
        <stop stop-opacity="1" stop-color="rgb(204,255,255)" offset="100%"/>
      </linearGradient>
      <linearGradient x1="670.3359" gradientUnits="userSpaceOnUse" x2="733.8925" y1="391.8108" y2="432.0142" id="linearGradient2" spreadMethod="reflect">
        <stop stop-opacity="1" stop-color="rgb(153,204,255)" offset="0%"/>
        <stop stop-opacity="1" stop-color="rgb(204,255,255)" offset="100%"/>
      </linearGradient>
      <clipPath clipPathUnits="userSpaceOnUse" id="clipPath1">
        <path d="M0 0 L323 0 L323 154 L0 154 L0 0 Z"/>
      </clipPath>
      <clipPath clipPathUnits="userSpaceOnUse" id="clipPath2">
        <path d="M426 376 L749 376 L749 530 L426 530 L426 376 Z"/>
      </clipPath>
    </defs>
    <g fill="white" text-rendering="geometricPrecision" shape-rendering="geometricPrecision" transform="translate(-426,-376)" stroke="white">
      <rect x="426" width="323" height="154" y="376" clip-path="url(#clipPath2)" stroke="none"/>
    </g>
    <g text-rendering="geometricPrecision" stroke-miterlimit="1.45" shape-rendering="geometricPrecision" font-family="sans-serif" transform="matrix(1,0,0,1,-426,-376)" stroke-linecap="butt">
      <text x="453.1287" xml:space="preserve" y="437.6092" clip-path="url(#clipPath2)" stroke="none">X</text>
      <text x="567.2392" xml:space="preserve" y="437.6092" clip-path="url(#clipPath2)" stroke="none">Y</text>
    </g>
    <g text-rendering="geometricPrecision" stroke-miterlimit="1.45" shape-rendering="geometricPrecision" transform="matrix(1,0,0,1,-426,-376)" stroke-linecap="butt">
      <circle fill="none" r="11" clip-path="url(#clipPath2)" cx="642.7021" cy="489.074"/>
      <text x="639.3857" xml:space="preserve" y="493.6092" clip-path="url(#clipPath2)" font-family="sans-serif" stroke="none">P</text>
    </g>
    <g fill="url(#linearGradient1)" text-rendering="geometricPrecision" shape-rendering="geometricPrecision" transform="matrix(1,0,0,1,-426,-376)" stroke="url(#linearGradient1)">
      <circle r="20.1017" clip-path="url(#clipPath2)" cx="631.9463" cy="411.9125" stroke="none"/>
    </g>
    <g text-rendering="geometricPrecision" stroke-miterlimit="1.45" shape-rendering="geometricPrecision" transform="matrix(1,0,0,1,-426,-376)" stroke-linecap="butt">
      <circle fill="none" r="20.1017" clip-path="url(#clipPath2)" cx="631.9463" cy="411.9125"/>
      <text x="628.2079" xml:space="preserve" y="416.4476" clip-path="url(#clipPath2)" font-family="sans-serif" stroke="none"><a id="details_link_y" href="">Y</a></text>
    </g>
    <g fill="url(#linearGradient2)" text-rendering="geometricPrecision" shape-rendering="geometricPrecision" transform="matrix(1,0,0,1,-426,-376)" stroke="url(#linearGradient2)">
      <circle r="20.1017" clip-path="url(#clipPath2)" cx="702.1142" cy="411.9125" stroke="none"/>
    </g>
    <g text-rendering="geometricPrecision" stroke-miterlimit="1.45" shape-rendering="geometricPrecision" transform="matrix(1,0,0,1,-426,-376)" stroke-linecap="butt">
      <circle fill="none" r="20.1017" clip-path="url(#clipPath2)" cx="702.1142" cy="411.9125"/>
      <text x="698.3583" xml:space="preserve" y="416.4476" clip-path="url(#clipPath2)" font-family="sans-serif" stroke="none"><a id="details_link_x" href="">X</a></text>
    </g>
    <g text-rendering="geometricPrecision" stroke-miterlimit="1.45" shape-rendering="geometricPrecision" transform="matrix(1,0,0,1,-426,-376)" stroke-linecap="butt">
      <circle fill="none" r="29.2994" clip-path="url(#clipPath2)" cx="631.9463" cy="484.9827"/>
      <text x="618.4395" xml:space="preserve" y="478.8685" clip-path="url(#clipPath2)" font-family="sans-serif" stroke="none">P</text>
    </g>
    <g text-rendering="geometricPrecision" stroke-miterlimit="1.45" stroke-dasharray="6,2" shape-rendering="geometricPrecision" transform="matrix(1,0,0,1,-426,-376)" stroke-linecap="butt">
      <path fill="none" d="M471.8846 433.074 L547.9775 433.074" clip-path="url(#clipPath2)"/>
      <path d="M555.9775 433.074 L543.9775 428.074 L546.9775 433.074 L543.9775 438.074 Z" clip-path="url(#clipPath2)" stroke="none"/>
      <text x="466.1634" y="428.3859" clip-path="url(#clipPath2)" font-family="sans-serif" stroke-dasharray="none" stroke="none" xml:space="preserve">&lt;&lt;DETAILS&gt;&gt;</text>
      <path fill="none" stroke-dasharray="none" d="M702.7422 431.9903 L701.729 442.3426 L697.9194 454.7728 L691.6985 465.3463 L683.0664 474.0631 L672.0229 480.9234 L661.262 484.9252 L661.1639 484.9447" clip-path="url(#clipPath2)"/>
      <path stroke-dasharray="none" d="M653.4204 486.954 L666.2916 488.7798 L662.1319 484.6935 L663.7799 479.1003 Z" clip-path="url(#clipPath2)" stroke="none"/>
      <path fill="none" stroke-dasharray="none" d="M631.9462 431.9996 L631.9462 447.6713" clip-path="url(#clipPath2)"/>
      <path stroke-dasharray="none" d="M631.9462 455.6713 L636.9462 443.6713 L631.9462 446.6713 L626.9462 443.6713 Z" clip-path="url(#clipPath2)" stroke="none"/>
    </g>
  </g>
</svg>
