<?xml version="1.0" encoding="UTF-8"?><svg xmlns="http://www.w3.org/2000/svg" xmlns:xlink="http://www.w3.org/1999/xlink" fill-opacity="1" color-rendering="auto" color-interpolation="auto" text-rendering="auto" stroke="black" stroke-linecap="square" width="323" stroke-miterlimit="10" shape-rendering="auto" stroke-opacity="1" fill="black" stroke-dasharray="none" font-weight="normal" stroke-width="1" height="140" font-family="'Dialog'" font-style="normal" stroke-linejoin="miter" font-size="12px" stroke-dashoffset="0" image-rendering="auto">
  <!--Generated by ySVG 2.5-->
  <defs id="genericDefs"/>
  <g>
    <defs id="defs1">
      <linearGradient x1="669.9005" gradientUnits="userSpaceOnUse" x2="733.4571" y1="401.9211" y2="442.1245" id="linearGradient1" spreadMethod="reflect">
        <stop stop-opacity="1" stop-color="rgb(153,204,255)" offset="0%"/>
        <stop stop-opacity="1" stop-color="rgb(204,255,255)" offset="100%"/>
      </linearGradient>
      <linearGradient x1="599.7325" gradientUnits="userSpaceOnUse" x2="663.2892" y1="401.9211" y2="442.1245" id="linearGradient2" spreadMethod="reflect">
        <stop stop-opacity="1" stop-color="rgb(153,204,255)" offset="0%"/>
        <stop stop-opacity="1" stop-color="rgb(204,255,255)" offset="100%"/>
      </linearGradient>
      <clipPath clipPathUnits="userSpaceOnUse" id="clipPath1">
        <path d="M0 0 L323 0 L323 140 L0 140 L0 0 Z"/>
      </clipPath>
      <clipPath clipPathUnits="userSpaceOnUse" id="clipPath2">
        <path d="M426 376 L749 376 L749 516 L426 516 L426 376 Z"/>
      </clipPath>
    </defs>
    <g fill="white" text-rendering="geometricPrecision" shape-rendering="geometricPrecision" transform="translate(-426,-376)" stroke="white">
      <rect x="426" width="323" height="140" y="376" clip-path="url(#clipPath2)" stroke="none"/>
    </g>
    <g text-rendering="geometricPrecision" stroke-miterlimit="1.45" shape-rendering="geometricPrecision" font-family="sans-serif" transform="matrix(1,0,0,1,-426,-376)" stroke-linecap="butt">
      <text x="452.6933" xml:space="preserve" y="437.9972" clip-path="url(#clipPath2)" stroke="none">X</text>
      <text x="566.8038" xml:space="preserve" y="437.9972" clip-path="url(#clipPath2)" stroke="none">Y</text>
    </g>
    <g text-rendering="geometricPrecision" stroke-miterlimit="1.45" shape-rendering="geometricPrecision" transform="matrix(1,0,0,1,-426,-376)" stroke-linecap="butt">
      <circle fill="none" r="11" clip-path="url(#clipPath2)" cx="668.5027" cy="489.462"/>
      <text x="665.1863" xml:space="preserve" y="493.9972" clip-path="url(#clipPath2)" font-family="sans-serif" stroke="none">P</text>
    </g>
    <g fill="url(#linearGradient1)" text-rendering="geometricPrecision" shape-rendering="geometricPrecision" transform="matrix(1,0,0,1,-426,-376)" stroke="url(#linearGradient1)">
      <circle r="20.1017" clip-path="url(#clipPath2)" cx="701.6788" cy="422.0228" stroke="none"/>
    </g>
    <g text-rendering="geometricPrecision" stroke-miterlimit="1.45" shape-rendering="geometricPrecision" transform="matrix(1,0,0,1,-426,-376)" stroke-linecap="butt">
      <circle fill="none" r="20.1017" clip-path="url(#clipPath2)" cx="701.6788" cy="422.0228"/>
      <text x="697.9405" xml:space="preserve" y="426.558" clip-path="url(#clipPath2)" font-family="sans-serif" stroke="none"><a id="explains_link_y" href="">Y</a></text>
    </g>
    <g fill="rgb(255,255,153)" text-rendering="geometricPrecision" shape-rendering="geometricPrecision" transform="matrix(1,0,0,1,-426,-376)" stroke="rgb(255,255,153)">
      <rect x="701.0506" y="391.0338" clip-path="url(#clipPath2)" width="27.0684" rx="4" ry="4" height="23" stroke="none"/>
    </g>
    <g text-rendering="geometricPrecision" stroke-miterlimit="1.45" shape-rendering="geometricPrecision" transform="matrix(1,0,0,1,-426,-376)" stroke-linecap="butt">
      <rect x="701.0506" y="391.0338" clip-path="url(#clipPath2)" fill="none" width="27.0684" rx="4" ry="4" height="23"/>
      <text x="709.4168" xml:space="preserve" y="407.0689" clip-path="url(#clipPath2)" font-family="sans-serif" stroke="none">T'</text>
    </g>
    <g fill="url(#linearGradient2)" text-rendering="geometricPrecision" shape-rendering="geometricPrecision" transform="matrix(1,0,0,1,-426,-376)" stroke="url(#linearGradient2)">
      <circle r="20.1017" clip-path="url(#clipPath2)" cx="631.5109" cy="422.0228" stroke="none"/>
    </g>
    <g text-rendering="geometricPrecision" stroke-miterlimit="1.45" shape-rendering="geometricPrecision" transform="matrix(1,0,0,1,-426,-376)" stroke-linecap="butt">
      <circle fill="none" r="20.1017" clip-path="url(#clipPath2)" cx="631.5109" cy="422.0228"/>
      <text x="627.755" xml:space="preserve" y="426.558" clip-path="url(#clipPath2)" font-family="sans-serif" stroke="none"><a id="explains_link_x" href="">X</a></text>
    </g>
    <g fill="rgb(255,255,153)" text-rendering="geometricPrecision" shape-rendering="geometricPrecision" transform="matrix(1,0,0,1,-426,-376)" stroke="rgb(255,255,153)">
      <rect x="630.8827" y="391.0338" clip-path="url(#clipPath2)" width="27.0684" rx="4" ry="4" height="23" stroke="none"/>
    </g>
    <g text-rendering="geometricPrecision" stroke-miterlimit="1.45" shape-rendering="geometricPrecision" transform="matrix(1,0,0,1,-426,-376)" stroke-linecap="butt">
      <rect x="630.8827" y="391.0338" clip-path="url(#clipPath2)" fill="none" width="27.0684" rx="4" ry="4" height="23"/>
      <text x="640.6229" xml:space="preserve" y="407.0689" clip-path="url(#clipPath2)" font-family="sans-serif" stroke="none">T</text>
      <path fill="none" stroke-dasharray="6,2" d="M479.4491 433.462 L547.5421 433.462" clip-path="url(#clipPath2)"/>
      <path stroke-dasharray="6,2" d="M471.4491 433.462 L483.4491 438.462 L480.4491 433.462 L483.4491 428.462 Z" clip-path="url(#clipPath2)" stroke="none"/>
      <path stroke-dasharray="6,2" d="M555.5421 433.462 L543.5421 428.462 L546.5421 433.462 L543.5421 438.462 Z" clip-path="url(#clipPath2)" stroke="none"/>
      <text x="462.5112" xml:space="preserve" y="428.7739" clip-path="url(#clipPath2)" font-family="sans-serif" stroke="none">&lt;&lt;EXPLAINS&gt;&gt;</text>
      <path fill="none" d="M692.8178 440.0351 L676.89 472.4127" clip-path="url(#clipPath2)"/>
      <path d="M673.3586 479.5911 L683.1422 471.0306 L677.3314 471.5154 L674.1691 466.6164 Z" clip-path="url(#clipPath2)" stroke="none"/>
      <path fill="none" d="M641.1743 439.64 L659.3578 472.79" clip-path="url(#clipPath2)"/>
      <path d="M663.2051 479.8041 L661.8179 466.8784 L658.8768 471.9133 L653.0503 471.6876 Z" clip-path="url(#clipPath2)" stroke="none"/>
    </g>
  </g>
</svg>
