<?xml version="1.0" encoding="UTF-8"?><svg xmlns="http://www.w3.org/2000/svg" xmlns:xlink="http://www.w3.org/1999/xlink" fill-opacity="1" color-rendering="auto" color-interpolation="auto" text-rendering="auto" stroke="black" stroke-linecap="square" width="335" stroke-miterlimit="10" shape-rendering="auto" stroke-opacity="1" fill="black" stroke-dasharray="none" font-weight="normal" stroke-width="1" height="146" font-family="'Dialog'" font-style="normal" stroke-linejoin="miter" font-size="12px" stroke-dashoffset="0" image-rendering="auto">
  <!--Generated by ySVG 2.5-->
  <defs id="genericDefs"/>
  <g>
    <defs id="defs1">
      <linearGradient x1="330.0027" gradientUnits="userSpaceOnUse" x2="426.6694" y1="658.0066" y2="658.0066" id="linearGradient1" spreadMethod="reflect">
        <stop stop-opacity="1" stop-color="rgb(153,204,255)" offset="0%"/>
        <stop stop-opacity="1" stop-color="rgb(204,255,255)" offset="100%"/>
      </linearGradient>
      <linearGradient x1="351.2006" gradientUnits="userSpaceOnUse" x2="414.7572" y1="675.0953" y2="715.2988" id="linearGradient2" spreadMethod="reflect">
        <stop stop-opacity="1" stop-color="rgb(153,204,255)" offset="0%"/>
        <stop stop-opacity="1" stop-color="rgb(204,255,255)" offset="100%"/>
      </linearGradient>
      <clipPath clipPathUnits="userSpaceOnUse" id="clipPath1">
        <path d="M0 0 L335 0 L335 146 L0 146 L0 0 Z"/>
      </clipPath>
      <clipPath clipPathUnits="userSpaceOnUse" id="clipPath2">
        <path d="M108 643 L443 643 L443 789 L108 789 L108 643 Z"/>
      </clipPath>
    </defs>
    <g fill="white" text-rendering="geometricPrecision" shape-rendering="geometricPrecision" transform="translate(-108,-643)" stroke="white">
      <rect x="108" width="335" height="146" y="643" clip-path="url(#clipPath2)" stroke="none"/>
    </g>
    <g fill="url(#linearGradient1)" text-rendering="geometricPrecision" shape-rendering="geometricPrecision" transform="matrix(1,0,0,1,-108,-643)" stroke="url(#linearGradient1)">
      <ellipse rx="72.5" ry="37.1905" clip-path="url(#clipPath2)" cx="354.1694" cy="695.1971" stroke="none"/>
    </g>
    <g text-rendering="geometricPrecision" stroke-miterlimit="1.45" shape-rendering="geometricPrecision" transform="matrix(1,0,0,1,-108,-643)" stroke-linecap="butt">
      <ellipse rx="72.5" fill="none" ry="37.1905" clip-path="url(#clipPath2)" cx="354.1694" cy="695.1971"/>
      <text x="316.3253" xml:space="preserve" y="699.7322" clip-path="url(#clipPath2)" font-family="sans-serif" stroke="none"><a id="extends_link_x" href="">X</a></text>
    </g>
    <g fill="url(#linearGradient2)" text-rendering="geometricPrecision" shape-rendering="geometricPrecision" transform="matrix(1,0,0,1,-108,-643)" stroke="url(#linearGradient2)">
      <circle r="20.1017" clip-path="url(#clipPath2)" cx="382.9789" cy="695.1971" stroke="none"/>
    </g>
    <g text-rendering="geometricPrecision" stroke-miterlimit="1.45" shape-rendering="geometricPrecision" transform="matrix(1,0,0,1,-108,-643)" stroke-linecap="butt">
      <circle fill="none" r="20.1017" clip-path="url(#clipPath2)" cx="382.9789" cy="695.1971"/>
      <text x="379.2406" xml:space="preserve" y="699.7322" clip-path="url(#clipPath2)" font-family="sans-serif" stroke="none"><a id="extends_link_y" href="">Y</a></text>
    </g>
    <g text-rendering="geometricPrecision" stroke-miterlimit="1.45" shape-rendering="geometricPrecision" transform="matrix(1,0,0,1,-108,-643)" stroke-linecap="butt">
      <circle fill="none" r="11" clip-path="url(#clipPath2)" cx="354.1694" cy="762.6363"/>
      <text x="350.853" xml:space="preserve" y="767.1714" clip-path="url(#clipPath2)" font-family="sans-serif" stroke="none">P</text>
    </g>
    <g text-rendering="geometricPrecision" stroke-miterlimit="1.45" shape-rendering="geometricPrecision" transform="matrix(1,0,0,1,-108,-643)" stroke-linecap="butt">
      <circle fill="none" r="11" clip-path="url(#clipPath2)" cx="411.7884" cy="762.6363"/>
      <text x="408.472" xml:space="preserve" y="767.1714" clip-path="url(#clipPath2)" font-family="sans-serif" stroke="none">P</text>
    </g>
    <g text-rendering="geometricPrecision" stroke-miterlimit="1.45" shape-rendering="geometricPrecision" transform="matrix(1,0,0,1,-108,-643)" stroke-linecap="butt">
      <circle fill="none" r="11" clip-path="url(#clipPath2)" cx="305.2318" cy="762.6363"/>
      <text x="301.9154" xml:space="preserve" y="767.1714" clip-path="url(#clipPath2)" font-family="sans-serif" stroke="none">P</text>
    </g>
    <g text-rendering="geometricPrecision" stroke-miterlimit="1.45" shape-rendering="geometricPrecision" font-family="sans-serif" transform="matrix(1,0,0,1,-108,-643)" stroke-linecap="butt">
      <text x="134.2589" xml:space="preserve" y="699.7322" clip-path="url(#clipPath2)" stroke="none">X</text>
      <text x="248.3694" xml:space="preserve" y="699.7322" clip-path="url(#clipPath2)" stroke="none">Y</text>
      <path fill="none" d="M375.0872 713.6704 L361.6326 745.1659" clip-path="url(#clipPath2)"/>
      <path d="M358.4898 752.5227 L367.802 743.4517 L362.0255 744.2463 L358.606 739.5233 Z" clip-path="url(#clipPath2)" stroke="none"/>
      <path fill="none" d="M390.8706 713.6704 L404.3252 745.1659" clip-path="url(#clipPath2)"/>
      <path d="M407.468 752.5227 L407.3518 739.5232 L403.9324 744.2463 L398.1558 743.4517 Z" clip-path="url(#clipPath2)" stroke="none"/>
      <path fill="none" d="M328.8773 730.0511 L316.3728 747.2833" clip-path="url(#clipPath2)"/>
      <path d="M311.6743 753.7581 L322.7689 746.9824 L316.9601 746.4739 L314.6753 741.1093 Z" clip-path="url(#clipPath2)" stroke="none"/>
      <path fill="none" stroke-dasharray="6,2" d="M153.0148 695.1971 L229.1077 695.1971" clip-path="url(#clipPath2)"/>
      <path stroke-dasharray="6,2" d="M237.1077 695.1971 L225.1077 690.1971 L228.1077 695.1971 L225.1077 700.1971 Z" clip-path="url(#clipPath2)" stroke="none"/>
      <text x="144.9206" xml:space="preserve" y="690.509" clip-path="url(#clipPath2)" stroke="none">&lt;&lt;EXTENDS&gt;&gt;</text>
    </g>
  </g>
</svg>
