<?xml version="1.0" encoding="UTF-8"?><svg xmlns="http://www.w3.org/2000/svg" xmlns:xlink="http://www.w3.org/1999/xlink" fill-opacity="1" color-rendering="auto" color-interpolation="auto" text-rendering="auto" stroke="black" stroke-linecap="square" width="316" stroke-miterlimit="10" shape-rendering="auto" stroke-opacity="1" fill="black" stroke-dasharray="none" font-weight="normal" stroke-width="1" height="129" font-family="'Dialog'" font-style="normal" stroke-linejoin="miter" font-size="12px" stroke-dashoffset="0" image-rendering="auto">
  <!--Generated by ySVG 2.5-->
  <defs id="genericDefs"/>
  <g>
    <defs id="defs1">
      <linearGradient x1="662.8045" gradientUnits="userSpaceOnUse" x2="726.3611" y1="391.1083" y2="431.3117" id="linearGradient1" spreadMethod="reflect">
        <stop stop-opacity="1" stop-color="rgb(153,204,255)" offset="0%"/>
        <stop stop-opacity="1" stop-color="rgb(204,255,255)" offset="100%"/>
      </linearGradient>
      <linearGradient x1="592.6365" gradientUnits="userSpaceOnUse" x2="656.1932" y1="391.1083" y2="431.3117" id="linearGradient2" spreadMethod="reflect">
        <stop stop-opacity="1" stop-color="rgb(153,204,255)" offset="0%"/>
        <stop stop-opacity="1" stop-color="rgb(204,255,255)" offset="100%"/>
      </linearGradient>
      <clipPath clipPathUnits="userSpaceOnUse" id="clipPath1">
        <path d="M0 0 L316 0 L316 129 L0 129 L0 0 Z"/>
      </clipPath>
      <clipPath clipPathUnits="userSpaceOnUse" id="clipPath2">
        <path d="M426 376 L742 376 L742 505 L426 505 L426 376 Z"/>
      </clipPath>
    </defs>
    <g fill="white" text-rendering="geometricPrecision" shape-rendering="geometricPrecision" transform="translate(-426,-376)" stroke="white">
      <rect x="426" width="316" height="129" y="376" clip-path="url(#clipPath2)" stroke="none"/>
    </g>
    <g text-rendering="geometricPrecision" stroke-miterlimit="1.45" shape-rendering="geometricPrecision" font-family="sans-serif" transform="matrix(1,0,0,1,-426,-376)" stroke-linecap="butt">
      <text x="452.2515" xml:space="preserve" y="430.6994" clip-path="url(#clipPath2)" stroke="none">X</text>
      <text x="566.362" xml:space="preserve" y="430.6994" clip-path="url(#clipPath2)" stroke="none">Y</text>
    </g>
    <g text-rendering="geometricPrecision" stroke-miterlimit="1.45" shape-rendering="geometricPrecision" transform="matrix(1,0,0,1,-426,-376)" stroke-linecap="butt">
      <circle fill="none" r="11" clip-path="url(#clipPath2)" cx="661.4068" cy="478.6492"/>
      <text x="658.0903" xml:space="preserve" y="483.1844" clip-path="url(#clipPath2)" font-family="sans-serif" stroke="none">P</text>
    </g>
    <g fill="url(#linearGradient1)" text-rendering="geometricPrecision" shape-rendering="geometricPrecision" transform="matrix(1,0,0,1,-426,-376)" stroke="url(#linearGradient1)">
      <circle r="20.1017" clip-path="url(#clipPath2)" cx="694.5828" cy="411.21" stroke="none"/>
    </g>
    <g text-rendering="geometricPrecision" stroke-miterlimit="1.45" shape-rendering="geometricPrecision" transform="matrix(1,0,0,1,-426,-376)" stroke-linecap="butt">
      <circle fill="none" r="20.1017" clip-path="url(#clipPath2)" cx="694.5828" cy="411.21"/>
      <text x="690.8445" xml:space="preserve" y="415.7451" clip-path="url(#clipPath2)" font-family="sans-serif" stroke="none"><a id="repeats_link_y" href="">Y</a></text>
    </g>
    <g fill="url(#linearGradient2)" text-rendering="geometricPrecision" shape-rendering="geometricPrecision" transform="matrix(1,0,0,1,-426,-376)" stroke="url(#linearGradient2)">
      <circle r="20.1017" clip-path="url(#clipPath2)" cx="624.4149" cy="411.21" stroke="none"/>
    </g>
    <g text-rendering="geometricPrecision" stroke-miterlimit="1.45" shape-rendering="geometricPrecision" transform="matrix(1,0,0,1,-426,-376)" stroke-linecap="butt">
      <circle fill="none" r="20.1017" clip-path="url(#clipPath2)" cx="624.4149" cy="411.21"/>
      <text x="620.659" xml:space="preserve" y="415.7451" clip-path="url(#clipPath2)" font-family="sans-serif" stroke="none"><a id="repeats_link_x" href="">X</a></text>
    </g>
    <g text-rendering="geometricPrecision" stroke-miterlimit="1.45" stroke-dasharray="6,2" shape-rendering="geometricPrecision" transform="matrix(1,0,0,1,-426,-376)" stroke-linecap="butt">
      <path fill="none" d="M479.0074 426.1643 L547.1003 426.1643" clip-path="url(#clipPath2)"/>
      <path d="M471.0074 426.1643 L483.0074 431.1643 L480.0074 426.1643 L483.0074 421.1643 Z" clip-path="url(#clipPath2)" stroke="none"/>
      <path d="M555.1003 426.1643 L543.1003 421.1643 L546.1003 426.1643 L543.1003 431.1643 Z" clip-path="url(#clipPath2)" stroke="none"/>
      <text x="471.3458" y="421.5352" clip-path="url(#clipPath2)" font-family="sans-serif" stroke-dasharray="none" stroke="none" xml:space="preserve">&lt;&lt;REPEATS&gt;&gt;</text>
      <path fill="none" stroke-dasharray="none" d="M685.7218 429.2223 L669.794 461.5999" clip-path="url(#clipPath2)"/>
      <path stroke-dasharray="none" d="M666.2626 468.7783 L676.0462 460.2178 L670.2354 460.7026 L667.0732 455.8036 Z" clip-path="url(#clipPath2)" stroke="none"/>
      <path fill="none" stroke-dasharray="none" d="M634.0783 428.8272 L652.2618 461.9772" clip-path="url(#clipPath2)"/>
      <path stroke-dasharray="none" d="M656.1092 468.9913 L654.7219 456.0656 L651.7809 461.1005 L645.9543 460.8748 Z" clip-path="url(#clipPath2)" stroke="none"/>
    </g>
  </g>
</svg>
