<?xml version="1.0" encoding="UTF-8"?><svg xmlns="http://www.w3.org/2000/svg" xmlns:xlink="http://www.w3.org/1999/xlink" fill-opacity="1" color-rendering="auto" color-interpolation="auto" text-rendering="auto" stroke="black" stroke-linecap="square" width="385" stroke-miterlimit="10" shape-rendering="auto" stroke-opacity="1" fill="black" stroke-dasharray="none" font-weight="normal" stroke-width="1" height="198" font-family="'Dialog'" font-style="normal" stroke-linejoin="miter" font-size="12px" stroke-dashoffset="0" image-rendering="auto">
  <!--Generated by ySVG 2.5-->
  <defs id="genericDefs"/>
  <g>
    <defs id="defs1">
      <linearGradient x1="653.3361" gradientUnits="userSpaceOnUse" x2="750.0027" y1="484.3699" y2="484.3699" id="linearGradient1" spreadMethod="reflect">
        <stop stop-opacity="1" stop-color="rgb(153,204,255)" offset="0%"/>
        <stop stop-opacity="1" stop-color="rgb(204,255,255)" offset="100%"/>
      </linearGradient>
      <linearGradient x1="653.3361" gradientUnits="userSpaceOnUse" x2="750.0027" y1="391.0195" y2="391.0195" id="linearGradient2" spreadMethod="reflect">
        <stop stop-opacity="1" stop-color="rgb(153,204,255)" offset="0%"/>
        <stop stop-opacity="1" stop-color="rgb(204,255,255)" offset="100%"/>
      </linearGradient>
      <linearGradient x1="666.441" gradientUnits="userSpaceOnUse" x2="729.9977" y1="501.4587" y2="541.6621" id="linearGradient3" spreadMethod="reflect">
        <stop stop-opacity="1" stop-color="rgb(153,204,255)" offset="0%"/>
        <stop stop-opacity="1" stop-color="rgb(204,255,255)" offset="100%"/>
      </linearGradient>
      <linearGradient x1="672.3481" gradientUnits="userSpaceOnUse" x2="735.9047" y1="408.1083" y2="448.3117" id="linearGradient4" spreadMethod="reflect">
        <stop stop-opacity="1" stop-color="rgb(153,204,255)" offset="0%"/>
        <stop stop-opacity="1" stop-color="rgb(204,255,255)" offset="100%"/>
      </linearGradient>
      <clipPath clipPathUnits="userSpaceOnUse" id="clipPath1">
        <path d="M0 0 L385 0 L385 198 L0 198 L0 0 Z"/>
      </clipPath>
      <clipPath clipPathUnits="userSpaceOnUse" id="clipPath2">
        <path d="M426 376 L811 376 L811 574 L426 574 L426 376 Z"/>
      </clipPath>
    </defs>
    <g fill="white" text-rendering="geometricPrecision" shape-rendering="geometricPrecision" transform="translate(-426,-376)" stroke="white">
      <rect x="426" width="385" height="198" y="376" clip-path="url(#clipPath2)" stroke="none"/>
    </g>
    <g fill="url(#linearGradient1)" text-rendering="geometricPrecision" shape-rendering="geometricPrecision" transform="matrix(1,0,0,1,-426,-376)" stroke="url(#linearGradient1)">
      <ellipse rx="72.5" ry="37.1905" clip-path="url(#clipPath2)" cx="677.5027" cy="521.5604" stroke="none"/>
    </g>
    <g text-rendering="geometricPrecision" stroke-miterlimit="1.45" shape-rendering="geometricPrecision" transform="matrix(1,0,0,1,-426,-376)" stroke-linecap="butt">
      <ellipse rx="72.5" fill="none" ry="37.1905" clip-path="url(#clipPath2)" cx="677.5027" cy="521.5604"/>
      <text x="639.6587" xml:space="preserve" y="526.0956" clip-path="url(#clipPath2)" font-family="sans-serif" stroke="none">Y</text>
    </g>
    <g fill="url(#linearGradient2)" text-rendering="geometricPrecision" shape-rendering="geometricPrecision" transform="matrix(1,0,0,1,-426,-376)" stroke="url(#linearGradient2)">
      <ellipse rx="72.5" ry="37.1905" clip-path="url(#clipPath2)" cx="677.5027" cy="428.21" stroke="none"/>
    </g>
    <g text-rendering="geometricPrecision" stroke-miterlimit="1.45" shape-rendering="geometricPrecision" transform="matrix(1,0,0,1,-426,-376)" stroke-linecap="butt">
      <ellipse rx="72.5" fill="none" ry="37.1905" clip-path="url(#clipPath2)" cx="677.5027" cy="428.21"/>
      <text x="639.6587" xml:space="preserve" y="432.7451" clip-path="url(#clipPath2)" font-family="sans-serif" stroke="none">X</text>
    </g>
    <g fill="url(#linearGradient3)" text-rendering="geometricPrecision" shape-rendering="geometricPrecision" transform="matrix(1,0,0,1,-426,-376)" stroke="url(#linearGradient3)">
      <circle r="20.1017" clip-path="url(#clipPath2)" cx="698.2193" cy="521.5604" stroke="none"/>
    </g>
    <g text-rendering="geometricPrecision" stroke-miterlimit="1.45" shape-rendering="geometricPrecision" transform="matrix(1,0,0,1,-426,-376)" stroke-linecap="butt">
      <circle fill="none" r="20.1017" clip-path="url(#clipPath2)" cx="698.2193" cy="521.5604"/>
      <text x="693.1071" xml:space="preserve" y="526.0956" clip-path="url(#clipPath2)" font-family="sans-serif" stroke="none">Y'</text>
    </g>
    <g text-rendering="geometricPrecision" stroke-miterlimit="1.45" shape-rendering="geometricPrecision" transform="matrix(1,0,0,1,-426,-376)" stroke-linecap="butt">
      <circle fill="none" r="11" clip-path="url(#clipPath2)" cx="779.4098" cy="476.4005"/>
      <text x="776.0934" xml:space="preserve" y="480.9357" clip-path="url(#clipPath2)" font-family="sans-serif" stroke="none">P</text>
    </g>
    <g fill="url(#linearGradient4)" text-rendering="geometricPrecision" shape-rendering="geometricPrecision" transform="matrix(1,0,0,1,-426,-376)" stroke="url(#linearGradient4)">
      <circle r="20.1017" clip-path="url(#clipPath2)" cx="704.1264" cy="428.21" stroke="none"/>
    </g>
    <g text-rendering="geometricPrecision" stroke-miterlimit="1.45" shape-rendering="geometricPrecision" transform="matrix(1,0,0,1,-426,-376)" stroke-linecap="butt">
      <circle fill="none" r="20.1017" clip-path="url(#clipPath2)" cx="704.1264" cy="428.21"/>
      <text x="698.9965" xml:space="preserve" y="432.7451" clip-path="url(#clipPath2)" font-family="sans-serif" stroke="none">X'</text>
    </g>
    <g text-rendering="geometricPrecision" stroke-miterlimit="1.45" shape-rendering="geometricPrecision" font-family="sans-serif" transform="matrix(1,0,0,1,-426,-376)" stroke-linecap="butt">
      <text x="452.5923" xml:space="preserve" y="475.7451" clip-path="url(#clipPath2)" stroke="none">X</text>
      <text x="566.7028" xml:space="preserve" y="475.7451" clip-path="url(#clipPath2)" stroke="none">Y</text>
      <path fill="none" d="M715.7816 511.7919 L762.8184 485.629" clip-path="url(#clipPath2)"/>
      <path d="M769.8096 481.7403 L756.8923 483.2038 L761.9445 486.1151 L761.7532 491.9429 Z" clip-path="url(#clipPath2)" stroke="none"/>
      <path fill="none" d="M721.0725 439.0576 L763.4144 466.1615" clip-path="url(#clipPath2)"/>
      <path d="M770.1522 470.4745 L762.7411 459.7939 L762.5721 465.6224 L757.3499 468.2161 Z" clip-path="url(#clipPath2)" stroke="none"/>
      <path fill="none" stroke-dasharray="6,2" d="M479.3481 471.21 L547.441 471.21" clip-path="url(#clipPath2)"/>
      <path stroke-dasharray="6,2" d="M471.3481 471.21 L483.3481 476.21 L480.3481 471.21 L483.3481 466.21 Z" clip-path="url(#clipPath2)" stroke="none"/>
      <path stroke-dasharray="6,2" d="M555.441 471.21 L543.441 466.21 L546.441 471.21 L543.441 476.21 Z" clip-path="url(#clipPath2)" stroke="none"/>
      <text x="467.4082" xml:space="preserve" y="466.5219" clip-path="url(#clipPath2)" stroke="none">&lt;&lt;SHARES&gt;&gt;</text>
    </g>
  </g>
</svg>
